<?xml version="1.0" encoding="UTF-8" standalone="no"?>
<!DOCTYPE svg PUBLIC "-//W3C//DTD SVG 1.1//EN"
 "http://www.w3.org/Graphics/SVG/1.1/DTD/svg11.dtd">
<!-- Generated by graphviz version 2.40.1 (20161225.0304)
 -->
<!-- Title: dependencies Pages: 1 -->
<svg width="504pt" height="284pt"
 viewBox="0.00 0.00 504.00 284.00" xmlns="http://www.w3.org/2000/svg" xmlns:xlink="http://www.w3.org/1999/xlink">
<g id="graph0" class="graph" transform="scale(1 1) rotate(0) translate(4 280)">
<title>dependencies</title>
<polygon fill="#ffffff" stroke="transparent" points="-4,4 -4,-280 500,-280 500,4 -4,4"/>
<text text-anchor="start" x="227.0091" y="-42.4" font-family="sans-serif" font-weight="bold" font-size="14.00" fill="#000000">Legend</text>
<polygon fill="#ffffb3" stroke="transparent" points="14,-10 14,-30 34,-30 34,-10 14,-10"/>
<text text-anchor="start" x="37.629" y="-15.4" font-family="sans-serif" font-size="14.00" fill="#000000"> &#160;Declarations</text>
<polygon fill="#8dd3c7" stroke="transparent" points="127,-10 127,-30 147,-30 147,-10 127,-10"/>
<text text-anchor="start" x="150.7251" y="-15.4" font-family="sans-serif" font-size="14.00" fill="#000000"> &#160;Module</text>
<polygon fill="#80b1d3" stroke="transparent" points="213,-10 213,-30 233,-30 233,-10 213,-10"/>
<text text-anchor="start" x="236.7812" y="-15.4" font-family="sans-serif" font-size="14.00" fill="#000000"> &#160;Bootstrap</text>
<polygon fill="#fdb462" stroke="transparent" points="310,-10 310,-30 330,-30 330,-10 310,-10"/>
<text text-anchor="start" x="333.6732" y="-15.4" font-family="sans-serif" font-size="14.00" fill="#000000"> &#160;Providers</text>
<polygon fill="#fb8072" stroke="transparent" points="406,-10 406,-30 426,-30 426,-10 406,-10"/>
<text text-anchor="start" x="429.7258" y="-15.4" font-family="sans-serif" font-size="14.00" fill="#000000"> &#160;Exports</text>
<g id="clust1" class="cluster">
<title>cluster_NgsRevealModule</title>
<polygon fill="none" stroke="#000000" stroke-dasharray="1,5" points="81,-70 81,-268 415,-268 415,-70 81,-70"/>
</g>
<g id="clust2" class="cluster">
<title>cluster_NgsRevealModule_declarations</title>
<polygon fill="none" stroke="#000000" points="93,-78 93,-130 404,-130 404,-78 93,-78"/>
</g>
<g id="clust6" class="cluster">
<title>cluster_NgsRevealModule_exports</title>
<polygon fill="none" stroke="#000000" points="89,-208 89,-260 407,-260 407,-208 89,-208"/>
</g>
<!-- NgsRevealDirective -->
<g id="node1" class="node">
<title>NgsRevealDirective</title>
<polygon fill="#ffffb3" stroke="#000000" points="395.5059,-122 266.4941,-122 266.4941,-86 395.5059,-86 395.5059,-122"/>
<text text-anchor="middle" x="331" y="-99.8" font-family="Times,serif" font-size="14.00" fill="#000000">NgsRevealDirective</text>
</g>
<!-- NgsRevealModule -->
<g id="node3" class="node">
<title>NgsRevealModule</title>
<polygon fill="#8dd3c7" stroke="#000000" points="235.472,-187 232.472,-191 211.472,-191 208.472,-187 114.528,-187 114.528,-151 235.472,-151 235.472,-187"/>
<text text-anchor="middle" x="175" y="-164.8" font-family="Times,serif" font-size="14.00" fill="#000000">NgsRevealModule</text>
</g>
<!-- NgsRevealDirective&#45;&gt;NgsRevealModule -->
<g id="edge1" class="edge">
<title>NgsRevealDirective&#45;&gt;NgsRevealModule</title>
<path fill="none" stroke="#000000" d="M352.5842,-122.0225C352.5842,-139.3734 352.5842,-163 352.5842,-163 352.5842,-163 245.6177,-163 245.6177,-163"/>
<polygon fill="#000000" stroke="#000000" points="245.6177,-159.5001 235.6177,-163 245.6177,-166.5001 245.6177,-159.5001"/>
</g>
<!-- NgsRevealSetDirective -->
<g id="node2" class="node">
<title>NgsRevealSetDirective</title>
<polygon fill="#ffffb3" stroke="#000000" points="248.8933,-122 101.1067,-122 101.1067,-86 248.8933,-86 248.8933,-122"/>
<text text-anchor="middle" x="175" y="-99.8" font-family="Times,serif" font-size="14.00" fill="#000000">NgsRevealSetDirective</text>
</g>
<!-- NgsRevealSetDirective&#45;&gt;NgsRevealModule -->
<g id="edge2" class="edge">
<title>NgsRevealSetDirective&#45;&gt;NgsRevealModule</title>
<path fill="none" stroke="#000000" d="M175,-122.1061C175,-122.1061 175,-140.991 175,-140.991"/>
<polygon fill="#000000" stroke="#000000" points="171.5001,-140.9909 175,-150.991 178.5001,-140.991 171.5001,-140.9909"/>
</g>
<!-- NgsRevealDirective  -->
<g id="node4" class="node">
<title>NgsRevealDirective </title>
<polygon fill="#fb8072" stroke="#000000" points="398.505,-252 265.495,-252 265.495,-216 398.505,-216 398.505,-252"/>
<text text-anchor="middle" x="332" y="-229.8" font-family="Times,serif" font-size="14.00" fill="#000000">NgsRevealDirective </text>
</g>
<!-- NgsRevealModule&#45;&gt;NgsRevealDirective  -->
<g id="edge3" class="edge">
<title>NgsRevealModule&#45;&gt;NgsRevealDirective </title>
<path fill="none" stroke="#000000" stroke-dasharray="5,2" d="M235.5232,-175C271.2007,-175 309.4158,-175 309.4158,-175 309.4158,-175 309.4158,-205.9775 309.4158,-205.9775"/>
<polygon fill="#000000" stroke="#000000" points="305.9159,-205.9774 309.4158,-215.9775 312.9159,-205.9775 305.9159,-205.9774"/>
</g>
<!-- NgsRevealSetDirective  -->
<g id="node5" class="node">
<title>NgsRevealSetDirective </title>
<polygon fill="#fb8072" stroke="#000000" points="247.3928,-252 96.6072,-252 96.6072,-216 247.3928,-216 247.3928,-252"/>
<text text-anchor="middle" x="172" y="-229.8" font-family="Times,serif" font-size="14.00" fill="#000000">NgsRevealSetDirective </text>
</g>
<!-- NgsRevealModule&#45;&gt;NgsRevealSetDirective  -->
<g id="edge4" class="edge">
<title>NgsRevealModule&#45;&gt;NgsRevealSetDirective </title>
<path fill="none" stroke="#000000" stroke-dasharray="5,2" d="M175,-187.1061C175,-187.1061 175,-205.991 175,-205.991"/>
<polygon fill="#000000" stroke="#000000" points="171.5001,-205.9909 175,-215.991 178.5001,-205.991 171.5001,-205.9909"/>
</g>
</g>
</svg>
